<svg id="Calque_1" data-name="Calque 1" xmlns="http://www.w3.org/2000/svg" xmlns:xlink="http://www.w3.org/1999/xlink" width="121.705" height="23.285" viewBox="0 0 121.705 23.285">
  <defs>
    <clipPath id="clip-path">
      <rect id="Rectangle_3885" data-name="Rectangle 3885" width="121.705" height="23.285" fill="#3369ff"/>
    </clipPath>
  </defs>
  <g id="Groupe_9808" data-name="Groupe 9808" transform="translate(0 0)">
    <g id="Groupe_9807" data-name="Groupe 9807" transform="translate(0 0)" clip-path="url(#clip-path)">
      <path id="Tracé_22684" data-name="Tracé 22684" d="M13.536,19.8a2.033,2.033,0,0,1-1.354-.462,1.493,1.493,0,0,1-.55-1.188V2.407a1.529,1.529,0,0,1,.529-1.164A1.956,1.956,0,0,1,13.536.757a1.824,1.824,0,0,1,1.312.487,1.611,1.611,0,0,1,.508,1.209V9.729c0,.339.1.508.3.508a.882.882,0,0,0,.339-.169L20.1,7.02a1.958,1.958,0,0,1,1.1-.339,1.547,1.547,0,0,1,1.185.508A1.728,1.728,0,0,1,22,9.856l-3.343,2.2a.818.818,0,0,0-.423.635.622.622,0,0,0,.339.55l3.851,3.473a1.427,1.427,0,0,1,.508.674,2.288,2.288,0,0,1,.127.719,1.582,1.582,0,0,1-.529,1.185,1.763,1.763,0,0,1-2.518-.042l-4.147-4.06a.4.4,0,0,0-.3-.127c-.142,0-.212.112-.212.336v2.708a1.572,1.572,0,0,1-.529,1.206,1.843,1.843,0,0,1-1.291.487" transform="translate(23.529 1.532)" fill="#3369ff"/>
      <path id="Tracé_22685" data-name="Tracé 22685" d="M18.016,15.709a2.033,2.033,0,0,1-1.354-.462,1.493,1.493,0,0,1-.55-1.188V4.579a1.518,1.518,0,0,1,.529-1.161,1.944,1.944,0,0,1,1.375-.49,1.778,1.778,0,0,1,1.248.444,1.758,1.758,0,0,1,.571,1.079,4.114,4.114,0,0,1,1.27-1.227A3.144,3.144,0,0,1,22.8,2.717a4.506,4.506,0,0,1,1.058.127,1.867,1.867,0,0,1,.973.656,1.767,1.767,0,0,1,.381,1.121,1.977,1.977,0,0,1-.571,1.46,1.366,1.366,0,0,1-1.333.4,4.9,4.9,0,0,0-1.1-.127,2.111,2.111,0,0,0-1.608.677,4.63,4.63,0,0,0-.762,2.751v4.232a1.572,1.572,0,0,1-.529,1.206,1.843,1.843,0,0,1-1.291.487" transform="translate(32.592 5.497)" fill="#3369ff"/>
      <path id="Tracé_22686" data-name="Tracé 22686" d="M21.84,4.777a2.2,2.2,0,0,1-1.523-.568,1.878,1.878,0,0,1-.635-1.463,1.858,1.858,0,0,1,.635-1.4A2.163,2.163,0,0,1,21.84.757a2.035,2.035,0,0,1,1.46.592,1.891,1.891,0,0,1,.614,1.4A1.912,1.912,0,0,1,23.3,4.209a2.063,2.063,0,0,1-1.46.568m0,15.023a2.028,2.028,0,0,1-1.354-.462,1.493,1.493,0,0,1-.55-1.188V8.544a1.518,1.518,0,0,1,.529-1.161,1.944,1.944,0,0,1,1.375-.49,1.8,1.8,0,0,1,1.333.49,1.637,1.637,0,0,1,.487,1.2v9.522a1.572,1.572,0,0,1-.529,1.206,1.843,1.843,0,0,1-1.291.487" transform="translate(39.813 1.532)" fill="#3369ff"/>
      <path id="Tracé_22687" data-name="Tracé 22687" d="M23.673,15.131a1.956,1.956,0,0,1-1.481-.571,1.8,1.8,0,0,1-.55-1.291,2.107,2.107,0,0,1,.592-1.4l5.078-4.867a.612.612,0,0,0,.212-.423c0-.224-.184-.339-.55-.339H23.716a1.7,1.7,0,1,1,0-3.386h7.321a2.166,2.166,0,0,1,1.566.571A1.851,1.851,0,0,1,33.2,4.8a2.506,2.506,0,0,1-.19.91,2.467,2.467,0,0,1-.656.91l-4.486,4.359a.611.611,0,0,0-.212.423c0,.227.181.339.55.339h3.851a1.469,1.469,0,0,1,1.248.529,1.885,1.885,0,0,1,0,2.328,1.477,1.477,0,0,1-1.248.529Z" transform="translate(43.778 5.782)" fill="#3369ff"/>
      <path id="Tracé_22688" data-name="Tracé 22688" d="M32.33,15.837a6.122,6.122,0,0,1-4.592-1.8,6.579,6.579,0,0,1-1.756-4.8A6.525,6.525,0,0,1,27.7,4.474,6.018,6.018,0,0,1,32.2,2.718a4.9,4.9,0,0,1,3.47,1.4,1.68,1.68,0,0,1,.635-.843,1.8,1.8,0,0,1,1.1-.342,1.956,1.956,0,0,1,1.375.487,1.529,1.529,0,0,1,.529,1.164v9.607a1.5,1.5,0,0,1-.529,1.185,2,2,0,0,1-1.375.466,1.6,1.6,0,0,1-1.735-1.224,4.807,4.807,0,0,1-3.343,1.224m.3-3.428a2.734,2.734,0,0,0,2.158-.91,3.294,3.294,0,0,0,.8-2.264,3.133,3.133,0,0,0-.8-2.243,3.148,3.148,0,0,0-4.3,0,3.082,3.082,0,0,0-.825,2.243,3.239,3.239,0,0,0,.825,2.264,2.746,2.746,0,0,0,2.137.91" transform="translate(52.557 5.499)" fill="#3369ff"/>
      <path id="Tracé_22689" data-name="Tracé 22689" d="M33.36,19.8a2.028,2.028,0,0,1-1.354-.462,1.493,1.493,0,0,1-.55-1.188V2.407a1.529,1.529,0,0,1,.529-1.164A1.956,1.956,0,0,1,33.36.757a1.824,1.824,0,0,1,1.312.487,1.611,1.611,0,0,1,.508,1.209V18.108a1.572,1.572,0,0,1-.529,1.206,1.843,1.843,0,0,1-1.291.487" transform="translate(63.63 1.532)" fill="#3369ff"/>
      <path id="Tracé_22690" data-name="Tracé 22690" d="M35.91,4.777a2.2,2.2,0,0,1-1.523-.568,1.878,1.878,0,0,1-.635-1.463,1.858,1.858,0,0,1,.635-1.4A2.163,2.163,0,0,1,35.91.757a2.035,2.035,0,0,1,1.46.592,1.891,1.891,0,0,1,.614,1.4,1.912,1.912,0,0,1-.614,1.463,2.063,2.063,0,0,1-1.46.568m0,15.023a2.028,2.028,0,0,1-1.354-.462,1.493,1.493,0,0,1-.55-1.188V8.544a1.518,1.518,0,0,1,.529-1.161,1.944,1.944,0,0,1,1.375-.49,1.8,1.8,0,0,1,1.333.49,1.637,1.637,0,0,1,.487,1.2v9.522a1.572,1.572,0,0,1-.529,1.206,1.843,1.843,0,0,1-1.291.487" transform="translate(68.274 1.532)" fill="#3369ff"/>
      <path id="Tracé_22691" data-name="Tracé 22691" d="M42.185,19.8A5.985,5.985,0,0,1,37.636,18a6.669,6.669,0,0,1-1.714-4.8,6.618,6.618,0,0,1,1.672-4.761,5.875,5.875,0,0,1,4.465-1.756A4.688,4.688,0,0,1,45.317,8V2.454a1.607,1.607,0,0,1,.508-1.209A1.819,1.819,0,0,1,47.137.758a1.956,1.956,0,0,1,1.375.487,1.535,1.535,0,0,1,.529,1.164V18.151a1.511,1.511,0,0,1-.529,1.185,2,2,0,0,1-1.375.466A1.635,1.635,0,0,1,45.4,18.617,4.632,4.632,0,0,1,42.185,19.8m.3-3.428a2.575,2.575,0,0,0,2.052-.91,3.339,3.339,0,0,0,.783-2.264,3.174,3.174,0,0,0-.783-2.243,2.663,2.663,0,0,0-2.052-.846,2.707,2.707,0,0,0-2.095.846A3.174,3.174,0,0,0,39.6,13.2a3.339,3.339,0,0,0,.783,2.264,2.615,2.615,0,0,0,2.095.91" transform="translate(72.664 1.534)" fill="#3369ff"/>
      <path id="Tracé_22692" data-name="Tracé 22692" d="M29.318,1.722l-.085-.478a1,1,0,0,0-.719-.78l-.39-.106c-4.072-1.1-8.234.375-11.148,3.924A14.706,14.706,0,0,0,14.8,7.934,14.588,14.588,0,0,0,12.62,4.286,10.667,10.667,0,0,0,1.475.359L1.082.465a.99.99,0,0,0-.719.78l-.085.478a16.3,16.3,0,0,0,3.129,13.1,8.776,8.776,0,0,0-.06,1.019c0,4.1,2.832,7.445,6.312,7.445A6.086,6.086,0,0,0,14.8,20.156a6.087,6.087,0,0,0,5.142,3.129c3.479,0,6.312-3.34,6.312-7.445a9.5,9.5,0,0,0-.06-1.019,16.307,16.307,0,0,0,3.129-13.1M22.955,16.555c-.263,1.829-1.517,3.216-3.017,3.216a2.916,2.916,0,0,1-2.412-1.523Zm.78-4.032h0l-.154.181-6.789,2.122A12.245,12.245,0,0,1,19.4,6.619a7.88,7.88,0,0,1,6.082-3.1,6.769,6.769,0,0,1,.819.048,12.469,12.469,0,0,1-2.563,8.957M9.658,19.772c-1.5,0-2.754-1.387-3.017-3.216l5.429,1.693a2.92,2.92,0,0,1-2.412,1.523M3.3,3.566a7.782,7.782,0,0,1,6.9,3.053,12.245,12.245,0,0,1,2.609,8.207L6.018,12.7l-.157-.181A12.469,12.469,0,0,1,3.3,3.566" transform="translate(0 0.002)" fill="#3369ff"/>
    </g>
  </g>
</svg>
